# xmcd
# Copyright (C) 1995-1998 Ti Kan
#
# Track frame offsets:
#       150
#       10600
#       21618
#       39850
#       49266
#       59890
#       75379
#       85995
#       98265
#       110396
#       123969
#       134412
#       155576
#
# Disc length: 2242 seconds
#
# Revision: 0
# Processed by: cddbd v1.5.2PL0 Copyright (c) Steve Scherf et al.
# Submitted via: CD-Transfer v1.0
#
DISCID=9e08c00d
DTITLE=Da Zillertaler&die Geigerin - 
DYEAR=2010
DGENRE=
TTITLE0=Die Geign`n Kearcht Zur Volksmusik
TTITLE1=Mei Liabs Diandl
TTITLE2=Böhmischer Traum
TTITLE3=Auf Der Jodleralm
TTITLE4=Marianne, Marianne
TTITLE5=Die Liab Hat Mi Troffn
TTITLE6=Wir Singen Von Den Bergen
TTITLE7=Geigenschneid
TTITLE8=Komm Nach Tirol
TTITLE9=Heimat Der Berge
TTITLE10=Riedler Boarischer
TTITLE11=Zum Abschied
TTITLE12=Madonna, Madonna
EXTD=
EXTT0=
EXTT1=
EXTT2=
EXTT3=
EXTT4=
EXTT5=
EXTT6=
EXTT7=
EXTT8=
EXTT9=
EXTT10=
EXTT11=
EXTT12=
PLAYORDER=
